<svg width="370" height="132" viewBox="0 0 370 132" fill="none" xmlns="http://www.w3.org/2000/svg">
<g filter="url(#filter0_d_4_24)">
<path d="M4 7.97153C4 15.8739 4.12065 16.2961 8.1623 22.3888C10.4546 25.8272 12.023 30.4721 11.1181 31.3769C10.8769 31.6182 10.8165 33.1263 10.9975 34.6947C11.3594 37.2886 11.842 37.9522 16.4266 42.3558C21.6747 47.3626 22.5796 48.9913 20.1063 48.9913C18.176 48.9913 16.6679 50.801 16.6679 53.033C16.6679 56.1095 17.814 61.2369 19.0808 63.6499C19.7444 64.8563 20.2873 66.3041 20.2873 66.7264C20.2873 68.1741 24.6306 75.7749 27.0435 78.5497C28.3706 80.0578 30.6629 82.2898 32.2313 83.5565C34.8855 85.7885 35.0061 85.9695 34.8252 88.7444C34.7045 91.5795 34.7649 91.7002 38.5049 95.1386C40.6162 97.0086 43.753 99.4216 45.5024 100.387C47.1914 101.352 48.6392 102.558 48.6392 103.041C48.6392 104.308 52.3189 107.806 54.8525 109.013L57.0845 110.038V115.347C57.0845 123.249 55.7573 122.706 77.4134 122.646C93.8816 122.586 95.7517 122.465 99.7933 121.259C103.533 120.173 104.559 120.052 106.188 120.655C109.143 121.741 112.823 121.56 113.909 120.293C115.9 118.122 117.408 114.623 117.408 112.27C117.408 110.461 117.89 109.194 119.157 107.565C120.062 106.359 121.329 104.428 121.932 103.282L123.018 101.171L123.621 102.679C126.215 109.013 128.085 111.969 132.127 115.829C134.479 118.122 137.918 120.776 139.727 121.741C142.985 123.491 143.166 123.491 152.395 123.37C157.523 123.31 167.054 123.068 173.508 122.887C184.367 122.525 185.392 122.405 186.659 121.259L187.986 119.992V91.2176V62.4434L186.659 61.1766C185.392 60.0305 184.427 59.9098 173.508 59.6082C167.054 59.4876 159.453 59.0653 156.618 58.824C149.982 58.1001 144.191 58.824 139.969 60.8147C136.229 62.5641 129.653 68.4154 127.542 71.7935L126.215 73.9652L125.491 71.0093C124.224 66.1231 121.087 60.5734 117.347 56.5921C115.417 54.4807 113.788 52.6107 113.788 52.3694C113.788 51.5852 110.471 46.8197 108.299 44.4671C107.032 43.14 105.102 40.8477 104.016 39.3396C101.362 35.8409 97.7423 33.3676 95.1484 33.3073C93.399 33.3073 92.3132 32.4024 85.7983 25.7669C79.5247 19.3123 78.2579 18.2265 76.6292 18.2265C75.483 18.2265 74.3369 17.7439 73.613 16.9597C71.9843 15.15 67.5807 12.1942 66.4949 12.1942C66.0123 12.1942 63.4184 10.8067 60.7642 9.17799C56.1796 6.3428 55.6367 6.16183 51.8363 6.16183C48.5186 6.16183 47.2518 5.86021 45.3214 4.65375C43.9943 3.86954 42.3053 3.14567 41.5814 3.14567C40.8575 3.14567 40.1336 2.90437 39.9527 2.60275C39.2891 1.57726 27.707 0.310471 26.8625 1.155C26.5006 1.51694 25.2338 1.57726 23.7257 1.27564C22.3383 1.03435 17.3314 0.79306 12.6262 0.732735H4V7.97153ZM20.1063 5.01569C27.2244 6.04118 35.1871 9.66058 40.0733 14.2451C41.883 15.9342 42.0036 15.9945 42.0036 14.788C42.0036 13.28 36.6349 8.87637 32.171 6.70473C30.6026 5.92053 29.3358 5.07601 29.3358 4.83472C29.3358 4.17116 29.6374 4.23148 32.2313 5.25698C33.4377 5.79989 35.0061 6.16183 35.6697 6.04118C36.3333 5.98086 37.4794 6.28247 38.2636 6.64441C38.9875 7.06667 39.5907 7.24764 39.5907 7.06667C39.5907 6.58409 48.1566 10.9274 49.3631 12.0735C50.0266 12.6164 50.4489 12.7371 50.4489 12.3148C50.4489 11.8925 50.2076 11.5909 49.8457 11.5909C49.5441 11.5909 49.2424 11.229 49.2424 10.8067C49.2424 9.7209 53.5254 10.0225 55.6367 11.2893C56.6019 11.8925 58.8338 13.28 60.5832 14.4261C62.3326 15.5119 64.0216 16.2961 64.2629 16.1152C65.1074 15.6326 71.6224 20.76 74.7592 24.4398C77.5944 27.7575 80.0073 29.326 77.9563 26.4908C77.4134 25.7669 76.8102 24.7414 76.5689 24.2588C76.3276 23.7762 75.9053 23.173 75.5434 22.9317C75.1211 22.6301 75.1814 22.4491 75.7243 22.4491C76.5689 22.4491 93.0371 38.7364 94.6658 41.2096C95.2087 41.9938 95.5104 43.2003 95.3294 43.8639C95.0278 45.01 94.5452 45.0703 82.4202 44.8894L69.873 44.7084L63.901 40.7874C57.748 36.6854 40.013 27.6369 36.8762 26.9733L35.0665 26.5511L37.2381 28.6021C38.3843 29.6879 40.2543 31.0753 41.3401 31.6182C42.4259 32.2215 43.1498 32.9453 42.9085 33.3073C42.7275 33.6089 43.2101 34.2121 44.0546 34.6344C44.8992 34.9963 45.623 35.4789 45.623 35.6599C45.623 35.8409 41.6417 35.9012 36.7555 35.7202C28.2499 35.4186 27.6467 35.298 23.6051 33.4279C18.2966 30.8944 15.5217 28.3608 15.0995 25.4049C14.8582 24.0778 13.7724 22.0268 12.3246 20.2775C9.67038 17.0803 7.98133 14.0642 8.46392 13.5816C8.64489 13.4006 8.4036 12.5561 7.98133 11.6512C6.95584 9.66058 6.17164 5.19666 6.71455 4.29181C7.19713 3.62825 11.7214 3.86954 20.1063 5.01569ZM16.7885 35.2376C17.5727 36.4441 17.8743 36.5044 18.7189 35.7805C19.3824 35.2376 20.3476 35.117 21.916 35.4789C26.3196 36.3838 27.2848 36.4441 39.4701 36.6251L51.7157 36.806L54.7922 38.6157L57.929 40.3651L58.11 46.2165C58.2909 50.4994 58.11 52.0075 57.567 52.0075C57.0241 52.0075 57.0241 52.1885 57.567 52.7314C57.9893 53.1536 58.2909 54.2998 58.2909 55.3253C58.2909 57.0143 57.9893 57.3159 55.4557 58.2208C52.1983 59.3669 49.5441 59.4876 46.2866 58.7034C45.0801 58.4018 42.6069 57.7985 40.7972 57.4366C36.8158 56.5317 34.4632 55.2649 33.679 53.5759C33.3171 52.7314 31.9297 51.8868 29.6977 51.2233C27.8277 50.6201 26.3196 49.8962 26.3196 49.5946C26.3196 49.2929 27.2244 49.3533 28.3103 49.7152C31.3264 50.6804 34.7649 51.0423 34.7649 50.3184C34.7649 49.7152 31.1455 48.3881 29.5167 48.3881C28.4309 48.3881 25.7164 47.061 25.7164 46.5181C25.7164 46.2768 26.5609 46.2768 27.5261 46.5784C28.5516 46.88 31.3264 47.242 33.7394 47.4832L38.0826 47.7849L33.3171 46.5784C27.0435 44.9497 21.9763 42.1748 18.0553 38.1935C16.3059 36.3838 14.8582 34.6947 14.8582 34.3931C14.8582 33.4279 15.944 33.9105 16.7885 35.2376ZM95.993 49.2929C105.524 51.7059 113.487 58.1605 117.83 66.9073C126.396 84.0391 119.64 105.876 103.232 113.839C95.993 117.398 93.5197 117.76 76.8705 117.76H61.9103V83.074V48.3881H77.1721C88.8145 48.3881 93.2784 48.6294 95.993 49.2929ZM159.453 64.4341C161.021 64.977 163.072 65.9422 164.038 66.6057L165.666 67.7519V66.2438V64.6754H174.112H182.557V91.2176V117.76H174.112C165.968 117.76 165.666 117.7 165.666 116.493C165.666 115.829 165.485 115.347 165.244 115.468C158.247 119.027 157.885 119.087 151.913 118.846C144.734 118.544 140.391 116.734 135.746 112.089C129.955 106.238 127.301 98.577 127.844 89.1063C128.206 82.712 129.653 78.3688 133.092 73.6032C138.822 65.5199 150.646 61.4782 159.453 64.4341Z" fill="url(#paint0_linear_4_24)"/>
<path d="M80.0071 83.1342V101.593L85.9188 101.352C92.7956 101.05 95.5705 99.9041 98.9486 95.9831C101.904 92.4843 103.232 88.3823 103.232 82.4707C103.232 78.1877 102.99 77.1019 101.241 73.6031C97.9834 66.9676 93.9417 64.6753 85.4362 64.6753H80.0071V83.1342Z" fill="url(#paint1_linear_4_24)"/>
<path d="M151.189 79.2131C148.595 80.2989 146.363 82.8928 145.458 86.0296C143.648 92.0016 144.614 97.2497 148.052 100.99C152.214 105.393 158.488 105.333 162.711 100.869C167.838 95.5004 167.114 84.4009 161.323 80.2989C159.151 78.7305 153.722 78.1273 151.189 79.2131Z" fill="url(#paint2_linear_4_24)"/>
<path d="M336.683 1.33603C336.019 1.63765 334.572 1.87894 333.486 1.87894C332.4 1.93926 331.073 2.18056 330.47 2.48217C324.437 5.49834 322.266 6.16189 318.707 6.16189C315.268 6.16189 314.605 6.40318 310.261 9.17805C307.667 10.8671 305.074 12.1942 304.41 12.1942C303.384 12.1942 297.714 16.2359 296.87 17.6233C296.689 17.9249 295.603 18.2265 294.577 18.2265C292.949 18.2869 291.682 19.1917 286.615 24.1985C283.297 27.5163 280.1 30.8944 279.496 31.7389C278.592 33.0661 277.928 33.3074 275.696 33.3074C272.982 33.3074 272.74 33.4883 267.492 38.8571C262.727 43.7433 257.358 50.6805 257.358 51.9472C257.358 52.1885 256.091 53.576 254.583 55.0237C251.024 58.5225 248.43 62.2625 246.681 66.4851C245.957 68.2948 245.293 69.5013 245.293 69.079C245.293 68.6568 243.664 66.7264 241.613 64.7358C236.184 59.367 233.41 58.4622 223.336 58.8844C218.992 59.0654 210.185 59.4273 203.73 59.6083C193.295 59.9099 191.786 60.0306 190.278 61.1164L188.589 62.3228V91.1573V119.992L189.977 121.259C191.183 122.405 192.028 122.525 202.283 122.646C212.236 122.767 213.443 122.646 214.528 121.681C215.674 120.655 215.735 119.811 215.735 105.152C215.735 96.3451 216.036 88.7444 216.338 87.4776C217.002 85.0647 218.63 83.7376 220.199 84.3408C222.008 85.0647 222.37 88.2618 222.37 104.489C222.37 119.328 222.431 120.655 223.456 121.56C224.421 122.465 226.171 122.586 235.762 122.586C250.059 122.586 249.516 123.008 249.516 112.572V105.394L251.627 107.807C253.196 109.677 253.678 110.762 253.738 112.632C253.738 114.08 254.462 116.252 255.428 118.062C256.936 120.776 257.298 121.078 259.469 121.259C260.736 121.379 262.968 121.138 264.355 120.776C266.467 120.173 267.432 120.233 270.931 121.319C274.671 122.465 276.42 122.586 293.25 122.586C314.786 122.586 313.338 123.129 313.579 115.407L313.76 110.34L315.871 109.254C317.078 108.591 319.37 106.721 320.999 105.032C322.567 103.403 325.885 100.507 328.238 98.6978C335.838 92.967 337.95 89.9509 336.381 86.995C335.838 86.0299 336.261 85.4266 338.915 83.255C346.636 76.9814 350.014 71.7936 352.669 62.1419C354.84 54.2998 354.056 48.9914 350.678 48.9914C348.506 48.9914 349.833 46.8198 354.78 42.2352C359.787 37.53 359.907 37.349 359.907 34.5741C359.907 33.0057 359.666 31.4977 359.304 31.1357C358.942 30.7738 359.063 29.9896 359.606 28.8434C360.088 27.8783 360.511 26.6718 360.511 26.0686C360.511 25.5257 361.657 23.5953 363.105 21.7856L365.638 18.5885L365.819 9.66064L366 0.732796H357.675C353.091 0.793121 348.205 1.03442 346.757 1.2757C345.369 1.57732 344.042 1.57732 343.861 1.2757C343.439 0.612152 338.312 0.672478 336.683 1.33603ZM364.552 4.65381C364.733 5.19672 364.311 7.36835 363.587 9.53999C362.924 11.6513 362.32 13.7626 362.32 14.2452C362.32 14.6675 361.114 16.8994 359.606 19.1917C358.098 21.484 356.529 24.3795 356.167 25.7066C355.323 28.3608 352.307 30.8944 346.093 34.0312C343.982 35.0567 342.534 36.0822 342.896 36.2029C343.318 36.3235 344.525 35.8409 345.671 35.1774C348.868 33.1867 351.462 33.7899 351.462 36.5648C351.462 37.5903 351.764 37.4697 353.573 35.7203C354.78 34.5138 355.685 34.0312 355.685 34.5138C355.685 36.0219 348.506 42.4162 344.947 44.0449C343.077 44.8894 339.458 46.0959 336.985 46.6991L332.46 47.7849L337.045 47.4833C339.578 47.3023 342.474 46.8801 343.56 46.5785C344.646 46.2768 345.43 46.2768 345.43 46.5785C345.43 47.1214 340.845 48.6295 337.95 49.112C337.286 49.2327 336.683 49.655 336.502 50.1375C336.2 50.9821 338.432 50.8614 342.715 49.8962C345.309 49.2327 343.922 50.4995 340.906 51.4043C339.578 51.8266 337.829 52.9727 336.985 53.9982C335.838 55.3253 334.511 55.9889 331.857 56.5921C329.866 57.0144 327.152 57.6779 325.825 57.9796C322.748 58.7638 315.811 58.8241 313.76 58.0399C312.192 57.4367 312.192 57.316 312.252 52.1885C312.312 49.2327 312.192 46.4578 312.011 45.9149C311.769 45.4323 311.95 43.9242 312.373 42.5971C313.036 40.6668 313.76 39.9429 316.475 38.4951C319.732 36.7458 319.853 36.6855 328.841 36.8061C335.115 36.8664 337.467 36.7458 336.502 36.3235C335.718 36.0219 332.943 35.8409 330.289 35.9616C327.695 36.0822 325.523 36.0822 325.523 35.9616C325.523 35.7806 325.885 34.7551 326.368 33.6693C326.971 32.2215 327.815 31.4373 329.263 30.9547C331.314 30.2912 335.416 26.6718 334.21 26.6718C332.822 26.6718 311.046 38.0126 306.159 41.27L301.032 44.7084L288.243 44.8894C277.023 45.0704 275.515 44.9497 275.817 44.1655C275.998 43.683 276.42 42.5368 276.661 41.6923C277.204 39.8826 294.155 22.4492 295.362 22.4492C296.025 22.4492 296.025 22.5698 295.301 23.173C294.758 23.5953 293.914 24.7414 293.311 25.7669C292.647 26.8528 293.612 26.1289 295.784 23.8969C299.463 19.9759 305.435 15.8136 306.642 16.2359C307.064 16.4168 308.271 15.8739 309.356 15.0294C313.338 12.1339 317.379 10.2035 319.31 10.2035C322.205 10.3242 322.205 10.3242 321.421 11.1084C320.275 12.2545 320.577 13.0991 321.783 12.0736C323.291 10.8068 330.771 6.7048 331.374 6.88577C331.616 6.94609 332.46 6.7048 333.245 6.28254C333.968 5.86028 334.572 5.73962 334.572 6.10157C334.572 6.46351 336.08 6.16189 337.889 5.55865C341.991 4.17122 342.715 4.83478 338.915 6.64448C335.175 8.33353 329.143 13.1594 329.143 14.4262C329.143 15.2707 329.324 15.2707 330.53 14.1849C332.641 12.3149 339.458 8.2732 342.414 7.12706C350.678 4.05058 363.708 2.60282 364.552 4.65381ZM308.633 83.074V117.76H293.672C277.023 117.76 274.49 117.398 267.311 113.839C256.996 108.832 249.998 97.8532 249.094 85.5473C247.887 68.5361 258.323 53.5156 274.248 49.3533C276.722 48.6898 281.608 48.4485 293.13 48.4485L308.633 48.3882V83.074ZM231.6 64.6754C236.184 66.4248 239.442 69.441 241.794 74.2065L243.785 78.2482L243.966 97.9739L244.147 117.76H235.702H227.196V101.473C227.196 83.7979 226.955 81.9882 223.939 80.0579C221.827 78.6704 216.579 78.7308 214.589 80.2388C211.15 82.7121 210.909 83.9789 210.909 101.593V117.76H202.464H194.018V91.2177V64.6754H202.464C210.487 64.6754 210.909 64.7358 210.909 65.8819C210.909 67.209 211.512 67.4503 212.538 66.4248C213.804 65.158 220.319 63.5293 224.301 63.5293C226.955 63.469 229.489 63.8912 231.6 64.6754Z" fill="url(#paint3_linear_4_24)"/>
<path d="M312.372 28.3005C311.95 29.0243 311.648 30.2308 311.648 31.015C311.709 32.1611 311.829 32.1008 312.614 30.3515C313.639 27.9988 313.398 26.3098 312.372 28.3005Z" fill="url(#paint4_linear_4_24)"/>
<path d="M276.962 65.8214C275.635 66.4247 273.584 67.8121 272.499 68.9583C265.863 75.5938 265.441 88.7443 271.594 95.9831C274.972 99.9041 277.747 101.05 284.684 101.352L290.535 101.593V83.1342V64.6753H284.985C280.884 64.6753 278.712 64.9769 276.962 65.8214Z" fill="url(#paint5_linear_4_24)"/>
</g>
<defs>
<filter id="filter0_d_4_24" x="0" y="0.732727" width="370" height="130.682" filterUnits="userSpaceOnUse" color-interpolation-filters="sRGB">
<feFlood flood-opacity="0" result="BackgroundImageFix"/>
<feColorMatrix in="SourceAlpha" type="matrix" values="0 0 0 0 0 0 0 0 0 0 0 0 0 0 0 0 0 0 127 0" result="hardAlpha"/>
<feOffset dy="4"/>
<feGaussianBlur stdDeviation="2"/>
<feComposite in2="hardAlpha" operator="out"/>
<feColorMatrix type="matrix" values="0 0 0 0 0 0 0 0 0 0 0 0 0 0 0 0 0 0 0.25 0"/>
<feBlend mode="normal" in2="BackgroundImageFix" result="effect1_dropShadow_4_24"/>
<feBlend mode="normal" in="SourceGraphic" in2="effect1_dropShadow_4_24" result="shape"/>
</filter>
<linearGradient id="paint0_linear_4_24" x1="95.993" y1="0.732735" x2="95.993" y2="123.415" gradientUnits="userSpaceOnUse">
<stop stop-color="#E4CDAD"/>
<stop offset="1" stop-color="#D0AE73"/>
</linearGradient>
<linearGradient id="paint1_linear_4_24" x1="91.6193" y1="64.6753" x2="91.6193" y2="101.593" gradientUnits="userSpaceOnUse">
<stop stop-color="#E4CDAD"/>
<stop offset="1" stop-color="#D0AE73"/>
</linearGradient>
<linearGradient id="paint2_linear_4_24" x1="155.356" y1="78.6626" x2="155.356" y2="104.255" gradientUnits="userSpaceOnUse">
<stop stop-color="#E4CDAD"/>
<stop offset="1" stop-color="#D0AE73"/>
</linearGradient>
<linearGradient id="paint3_linear_4_24" x1="277.295" y1="0.732796" x2="277.295" y2="122.685" gradientUnits="userSpaceOnUse">
<stop stop-color="#E4CDAD"/>
<stop offset="1" stop-color="#D0AE73"/>
</linearGradient>
<linearGradient id="paint4_linear_4_24" x1="312.461" y1="27.4201" x2="312.461" y2="31.7861" gradientUnits="userSpaceOnUse">
<stop stop-color="#E4CDAD"/>
<stop offset="1" stop-color="#D0AE73"/>
</linearGradient>
<linearGradient id="paint5_linear_4_24" x1="278.886" y1="64.6753" x2="278.886" y2="101.593" gradientUnits="userSpaceOnUse">
<stop stop-color="#E4CDAD"/>
<stop offset="1" stop-color="#D0AE73"/>
</linearGradient>
</defs>
</svg>
