<svg width="304" height="102" viewBox="0 0 304 102" fill="none" xmlns="http://www.w3.org/2000/svg">
<path d="M44.0628 1.5064C26.8034 4.80706 12.5078 14.8741 5.18559 28.9019C-0.393204 39.464 -1.61357 55.9674 2.22186 67.1896C6.23162 78.4119 18.2609 90.9544 30.4645 96.5655C51.7337 106.468 81.7197 99.8662 95.3181 82.5377C98.4561 78.4119 98.8048 76.9266 97.2358 72.6357L95.3181 67.5197L89.9136 75.2762C86.7755 79.7321 80.4994 85.3433 75.7923 88.1488C68.1214 92.4397 65.6807 93.0998 54.0001 93.0998C39.1814 93.0998 31.8592 90.4593 22.445 81.8776C-11.7251 50.3562 22.968 -3.93969 67.9471 10.5832C85.5552 16.3594 96.3641 31.0473 98.4561 51.8415C100.548 73.2958 111.357 88.6439 130.36 96.8956C150.932 105.807 175.688 101.021 191.204 85.0132C197.828 78.0818 198.177 77.4217 196.259 72.6357L194.342 67.6847L189.286 74.7811C175.165 95.4103 145.353 100.031 124.432 85.0132C114.67 77.9168 109.614 68.0148 107.173 50.6863C105.778 42.1046 103.163 32.2026 101.071 28.2418C90.7853 9.09793 65.855 -2.61943 44.0628 1.5064Z" fill="#003152"/>
<path d="M141.517 1.50643C129.663 3.81689 119.725 9.59306 109.962 19.8251C106.476 23.6209 106.301 24.6111 108.393 29.232L110.66 34.348L113.972 28.5719C121.12 15.8643 139.251 7.11756 155.464 8.43782C166.622 9.26299 175.339 13.2238 183.358 20.8153C191.901 28.9019 195.213 36.3284 196.957 51.3465C199.746 74.2861 208.463 86.8286 227.466 95.7404C254.488 108.448 285.869 98.3809 299.119 72.8008C303.128 65.0442 304 61.2484 304 51.0164C303.826 25.2712 287.089 6.45743 259.718 1.50643C242.633 -1.46417 220.841 5.96233 210.032 18.5049C205.325 23.9509 205.151 24.7761 207.243 29.5621L209.509 34.5131L211.95 30.0572C215.611 23.2908 221.015 18.3398 229.907 13.3888C240.367 7.44762 260.067 7.11756 271.05 12.5637C299.293 26.7565 304.349 62.5687 280.813 82.7028C261.985 98.876 233.045 97.0606 216.831 78.742C210.032 71.1504 207.591 64.7141 205.674 49.8612C203.93 34.183 200.792 27.0866 192.25 18.1748C183.707 8.93293 173.77 3.81689 161.218 1.67146C155.464 0.681264 150.409 -0.143902 149.886 0.0211316C149.363 0.186165 145.527 0.846297 141.517 1.50643Z" fill="#003152"/>
<path d="M43.5399 30.8823C26.9778 39.299 27.3265 65.0442 44.2372 71.8105C47.5496 73.1308 52.9541 74.121 56.4408 74.121C63.763 74.121 73.5259 69.8301 72.4799 67.0246C71.7825 65.0442 70.2135 65.0442 56.7895 67.0246C48.4213 68.1798 42.3195 64.5491 40.0531 56.6275C38.3097 50.6863 38.6584 48.3758 41.9708 41.7745C45.2832 35.3382 56.9638 32.5327 64.6347 36.3284C67.4241 37.8137 68.8188 37.6487 70.9108 35.5033C73.3515 33.1928 73.0029 32.6977 67.2497 30.3872C58.8815 27.0866 50.6877 27.2516 43.5399 30.8823Z" fill="#003152"/>
<path d="M134.021 51.0163V72.4706H152.501C169.063 72.4706 170.806 72.1406 170.283 69.5C169.76 67.1896 167.494 66.6945 156.162 66.1994L142.738 65.7043V60.0931V54.317H155.813C167.668 54.317 168.888 53.9869 168.888 51.0163C168.888 48.0457 167.668 47.7157 155.813 47.7157H142.738V41.9395V36.3284L156.162 35.8333C167.494 35.3382 169.76 34.8431 170.283 32.3676C170.806 29.8921 169.063 29.562 152.501 29.562H134.021V51.0163Z" fill="#003152"/>
<path d="M229.907 51.0163V72.4706H234.265C238.275 72.4706 238.623 71.8105 238.623 65.0441C238.623 58.2778 238.972 57.6176 242.808 57.6176C245.423 57.6176 249.432 60.2582 254.14 65.0441C259.021 70.1602 262.682 72.4706 265.82 72.4706H270.353L264.077 65.5392C260.59 61.7435 257.801 58.2778 257.801 57.7827C257.801 57.1226 259.544 55.9673 261.636 55.1422C270.702 51.3464 272.271 39.7941 264.425 32.8627C261.287 30.0571 258.324 29.562 245.248 29.562H229.907V51.0163ZM257.452 37.1535C261.636 39.9591 262.508 45.9003 259.195 49.0359C257.975 50.1912 252.919 51.0163 247.863 51.0163H238.623V42.7647V34.513H246.12C250.13 34.513 255.36 35.6682 257.452 37.1535Z" fill="#003152"/>
</svg>
