<svg width="316" height="80" viewBox="0 0 316 80" fill="none" xmlns="http://www.w3.org/2000/svg">
<g clip-path="url(#clip0_143_5)">
<path d="M24.4799 25.8701C28.7767 25.8701 32.2599 22.3868 32.2599 18.0901C32.2599 13.7933 28.7767 10.3101 24.4799 10.3101C20.1832 10.3101 16.7 13.7933 16.7 18.0901C16.7 22.3868 20.1832 25.8701 24.4799 25.8701Z" fill="#3D3D3D"/>
<path d="M6.26001 29.38C6.26001 29.38 16.82 22.64 24.49 25.07C29.22 26.57 32.37 28.62 28.94 49.25C24.49 76.05 34 80.36 34 80.36C34 80.36 20.5 79.05 20.69 62.93C20.88 46.81 23.78 37.06 20.13 32C16.7 27.25 6.26001 29.38 6.26001 29.38Z" fill="#3D3D3D"/>
<path d="M34.75 7.78C34.75 12.08 38.23 15.56 42.53 15.56C46.83 15.56 50.31 12.08 50.31 7.78C50.31 3.48 46.83 0 42.53 0C38.23 0 34.75 3.48 34.75 7.78Z" fill="#87BF54"/>
<path d="M60.75 19.0699C60.75 19.0699 50.19 12.3299 42.52 14.7599C37.79 16.2599 34.64 18.3099 38.07 38.9399C42.52 65.7399 33.01 70.0499 33.01 70.0499C33.01 70.0499 46.51 68.7399 46.32 52.6199C46.13 36.4999 43.23 26.7499 46.88 21.6899C50.31 16.9399 60.75 19.0699 60.75 19.0699Z" fill="#87BF54"/>
<path d="M74.8201 40.38C73.6901 40.38 72.69 40.24 71.8 39.96C70.91 39.68 70.16 39.23 69.55 38.63C68.93 38.02 68.47 37.24 68.15 36.29C67.83 35.33 67.67 34.18 67.67 32.84C67.67 31.11 67.96 29.69 68.55 28.56C69.14 27.43 69.98 26.59 71.08 26.04C72.18 25.49 73.5 25.21 75.03 25.21C75.51 25.21 75.98 25.23 76.45 25.28C76.92 25.33 77.36 25.4 77.78 25.5V28.78C77.4 28.7 77.01 28.63 76.61 28.58C76.21 28.53 75.8001 28.5 75.3801 28.5C74.5701 28.5 73.9 28.64 73.36 28.91C72.82 29.18 72.42 29.63 72.15 30.26C71.88 30.89 71.75 31.73 71.75 32.8C71.75 33.87 71.88 34.76 72.14 35.38C72.4 36 72.8 36.44 73.33 36.7C73.87 36.96 74.5501 37.09 75.3801 37.09C75.7101 37.09 76.0801 37.05 76.4901 36.97C76.9001 36.89 77.3301 36.78 77.7701 36.64V39.92C77.3901 40.07 76.93 40.18 76.39 40.27C75.85 40.36 75.32 40.4 74.8 40.4L74.8201 40.38Z" fill="#3D3D3D"/>
<path d="M78.0601 40.1799L81.7001 25.3999H87.5701L91.2101 40.1799H87.3701L84.4101 27.1399H84.7701L81.8501 40.1799H78.0601ZM80.6001 36.7499L81.3201 33.4499H87.9301L88.6501 36.7499H80.6001Z" fill="#3D3D3D"/>
<path d="M93.18 43.6799L90.62 41.9999C90.98 41.4799 91.26 40.9799 91.46 40.4999C91.66 40.0199 91.8 39.5099 91.88 38.9699C91.96 38.4299 92 37.8199 92 37.1299V25.3999H95.91V36.9599C95.91 37.7899 95.82 38.5799 95.65 39.3299C95.48 40.0799 95.19 40.8099 94.79 41.5199C94.39 42.2299 93.85 42.9499 93.17 43.6799H93.18Z" fill="#3D3D3D"/>
<path d="M96.7101 40.1799L100.35 25.3999H106.22L109.86 40.1799H106.02L103.06 27.1399H103.42L100.5 40.1799H96.7101ZM99.2501 36.7499L99.9701 33.4499H106.58L107.3 36.7499H99.2501Z" fill="#3D3D3D"/>
<path d="M118.88 40.38C118.47 40.38 118.04 40.38 117.6 40.36C117.16 40.34 116.72 40.32 116.29 40.29C115.86 40.26 115.44 40.22 115.04 40.17V25.71C115.49 25.61 115.96 25.52 116.43 25.44C116.91 25.36 117.39 25.3 117.89 25.27C118.39 25.23 118.89 25.21 119.41 25.21C121.92 25.21 123.8 25.82 125.05 27.04C126.3 28.26 126.92 30.18 126.92 32.8C126.92 34.56 126.63 36 126.04 37.11C125.45 38.22 124.56 39.05 123.37 39.59C122.18 40.12 120.68 40.39 118.88 40.39V40.38ZM119.96 37.13C120.57 37.13 121.1 37 121.54 36.74C121.98 36.48 122.32 36.04 122.55 35.41C122.78 34.78 122.9 33.91 122.9 32.79C122.9 31.67 122.78 30.79 122.53 30.15C122.28 29.52 121.94 29.07 121.49 28.82C121.04 28.56 120.51 28.44 119.91 28.44C119.77 28.44 119.61 28.44 119.43 28.46C119.25 28.48 119.1 28.5 118.98 28.54V37.11C119.2 37.11 119.39 37.12 119.56 37.12C119.73 37.12 119.87 37.12 119.97 37.12L119.96 37.13Z" fill="#3D3D3D"/>
<path d="M128.35 40.1799V25.3999H138.06V28.7399H132.21V36.8499H138.16V40.1899H128.35V40.1799ZM131.13 34.3099V30.9699H137.02V34.3099H131.13Z" fill="#3D3D3D"/>
<path d="M145.19 43.6799L142.63 41.9999C142.99 41.4799 143.27 40.9799 143.47 40.4999C143.67 40.0199 143.81 39.5099 143.89 38.9699C143.97 38.4299 144.01 37.8199 144.01 37.1299V25.3999H147.93V36.9599C147.93 37.7899 147.84 38.5799 147.67 39.3299C147.5 40.0799 147.21 40.8099 146.81 41.5199C146.41 42.2299 145.87 42.9499 145.19 43.6799Z" fill="#3D3D3D"/>
<path d="M155.54 40.3799C154.23 40.3799 153.13 40.1699 152.26 39.7499C151.38 39.3299 150.73 38.6599 150.29 37.7499C149.85 36.8399 149.63 35.6299 149.63 34.1499V25.3999H153.55V34.5899C153.55 35.5399 153.73 36.1899 154.08 36.5599C154.44 36.9299 154.92 37.1099 155.54 37.1099C156.16 37.1099 156.64 36.9299 156.99 36.5599C157.34 36.1899 157.51 35.5399 157.51 34.5899V25.3999H161.35V34.1499C161.35 35.6299 161.14 36.8399 160.71 37.7499C160.28 38.6699 159.64 39.3299 158.78 39.7499C157.92 40.1699 156.84 40.3799 155.54 40.3799Z" fill="#3D3D3D"/>
<path d="M167.16 40.3799C166.77 40.3799 166.33 40.3699 165.85 40.3299C165.37 40.2999 164.88 40.2599 164.39 40.2099C163.9 40.1599 163.45 40.0999 163.05 40.0299V25.6899C163.5 25.5899 163.99 25.4999 164.51 25.4199C165.03 25.3399 165.56 25.2799 166.1 25.2499C166.64 25.2099 167.16 25.1899 167.66 25.1899C169.07 25.1899 170.24 25.3299 171.16 25.6199C172.08 25.9099 172.77 26.3599 173.22 26.9799C173.67 27.5999 173.89 28.3899 173.89 29.3599C173.89 29.8999 173.79 30.3899 173.59 30.8399C173.39 31.2899 173.11 31.6599 172.75 31.9699C172.39 32.2799 171.97 32.4899 171.49 32.6099V32.4899C172.29 32.6399 172.96 32.9899 173.5 33.5399C174.04 34.0999 174.31 34.9099 174.31 35.9799C174.31 36.6999 174.17 37.3299 173.9 37.8799C173.62 38.4299 173.2 38.8799 172.62 39.2499C172.04 39.6199 171.3 39.8899 170.4 40.0799C169.5 40.2699 168.42 40.3599 167.17 40.3599L167.16 40.3799ZM168.28 37.3899C168.86 37.3899 169.32 37.3299 169.66 37.2199C170 37.1099 170.25 36.9399 170.4 36.6999C170.55 36.4599 170.63 36.1499 170.63 35.7699C170.63 35.2199 170.46 34.8199 170.11 34.5799C169.76 34.3399 169.21 34.2199 168.45 34.2199H166.53V31.0999H168.19C168.7 31.0999 169.1 31.0499 169.39 30.9499C169.68 30.8499 169.89 30.6999 170.02 30.4899C170.15 30.2799 170.21 30.0099 170.21 29.6699C170.21 29.1499 170.07 28.7799 169.78 28.5499C169.49 28.3199 169 28.2099 168.31 28.2099C168.05 28.2099 167.8 28.2199 167.57 28.2399C167.34 28.2599 167.1 28.2899 166.85 28.3299V37.3399C167.14 37.3599 167.4 37.3699 167.61 37.3799C167.83 37.3899 168.04 37.3999 168.26 37.3999L168.28 37.3899Z" fill="#3D3D3D"/>
<path d="M175.45 40.1799V25.3999H179.36V40.1799H175.45Z" fill="#3D3D3D"/>
<path d="M181.12 40.1799V25.3999H185.03V36.7299H190.54V40.1899H181.11L181.12 40.1799Z" fill="#3D3D3D"/>
<path d="M190.51 40.1799L194.14 25.3999H200.01L203.65 40.1799H199.82L196.86 27.1399H197.22L194.3 40.1799H190.5H190.51ZM193.05 36.7499L193.77 33.4499H200.38L201.1 36.7499H193.05Z" fill="#3D3D3D"/>
<path d="M210.96 40.38C209.84 40.38 208.83 40.24 207.94 39.96C207.05 39.68 206.3 39.23 205.69 38.63C205.07 38.02 204.61 37.24 204.29 36.29C203.97 35.33 203.81 34.18 203.81 32.84C203.81 31.11 204.1 29.69 204.69 28.56C205.28 27.43 206.12 26.59 207.22 26.04C208.32 25.49 209.64 25.21 211.17 25.21C211.65 25.21 212.12 25.23 212.59 25.28C213.06 25.33 213.5 25.4 213.92 25.5V28.78C213.54 28.7 213.15 28.63 212.75 28.58C212.35 28.53 211.94 28.5 211.52 28.5C210.71 28.5 210.04 28.64 209.5 28.91C208.96 29.18 208.56 29.63 208.29 30.26C208.02 30.89 207.89 31.73 207.89 32.8C207.89 33.87 208.02 34.76 208.28 35.38C208.54 36 208.94 36.44 209.47 36.7C210 36.96 210.69 37.09 211.52 37.09C211.85 37.09 212.22 37.05 212.63 36.97C213.04 36.89 213.47 36.78 213.91 36.64V39.92C213.53 40.07 213.07 40.18 212.53 40.27C211.99 40.36 211.46 40.4 210.94 40.4L210.96 40.38Z" fill="#3D3D3D"/>
<path d="M215.16 40.1799V25.3999H219.07V40.1799H215.16Z" fill="#3D3D3D"/>
<path d="M226.92 40.38C225.66 40.38 224.54 40.1199 223.58 39.5999C222.61 39.0799 221.86 38.2599 221.31 37.1399C220.76 36.0299 220.49 34.58 220.49 32.79C220.49 31 220.76 29.56 221.31 28.44C221.86 27.33 222.61 26.5099 223.58 25.9799C224.55 25.4599 225.66 25.2 226.92 25.2C228.18 25.2 229.3 25.4599 230.27 25.9799C231.24 26.4999 231.99 27.32 232.54 28.44C233.09 29.55 233.36 31.01 233.36 32.79C233.36 34.57 233.09 36.0199 232.54 37.1399C231.99 38.2499 231.24 39.0699 230.27 39.5999C229.3 40.1199 228.19 40.38 226.92 40.38ZM226.92 37.15C227.43 37.15 227.87 37.01 228.22 36.74C228.58 36.47 228.85 36.02 229.03 35.4C229.22 34.78 229.31 33.94 229.31 32.88C229.31 31.77 229.22 30.8899 229.03 30.2399C228.84 29.5899 228.57 29.13 228.22 28.86C227.86 28.58 227.43 28.45 226.92 28.45C226.41 28.45 225.97 28.58 225.62 28.85C225.26 29.12 224.99 29.57 224.81 30.19C224.62 30.82 224.53 31.66 224.53 32.72C224.53 33.83 224.62 34.71 224.81 35.36C225 36.01 225.27 36.47 225.62 36.74C225.98 37.02 226.41 37.15 226.92 37.15Z" fill="#3D3D3D"/>
<path d="M234.77 40.1799V25.3999H238.67L243.72 34.6899H243.14V25.3999H246.79V40.1799H242.89L237.84 30.8899H238.42V40.1799H234.77Z" fill="#3D3D3D"/>
<path d="M248.55 40.1799V25.3999H258.26V28.7399H252.41V36.8499H258.36V40.1899H248.55V40.1799ZM251.33 34.3099V30.9699H257.22V34.3099H251.33Z" fill="#3D3D3D"/>
<path d="M263.39 40.38C262.79 40.38 262.14 40.33 261.45 40.22C260.75 40.11 260.14 39.9599 259.6 39.7599V36.4999C259.97 36.6099 260.35 36.7099 260.76 36.7999C261.17 36.8899 261.58 36.9599 262.01 37.0099C262.44 37.0599 262.87 37.0899 263.29 37.0899C264.02 37.0899 264.54 36.9899 264.84 36.7799C265.14 36.5699 265.29 36.2999 265.29 35.9799C265.29 35.7099 265.19 35.48 264.98 35.29C264.77 35.1 264.34 34.9 263.69 34.68L262.49 34.2799C261.54 33.9599 260.75 33.4499 260.1 32.7499C259.45 32.05 259.13 31.11 259.13 29.95C259.13 28.48 259.63 27.3199 260.63 26.4699C261.63 25.6199 263.14 25.2 265.16 25.2C265.79 25.2 266.39 25.2399 266.94 25.3099C267.49 25.3799 267.98 25.48 268.4 25.6V28.86C268 28.74 267.55 28.65 267.06 28.58C266.57 28.51 266.07 28.4799 265.58 28.4799C264.91 28.4799 264.4 28.5299 264.04 28.6499C263.68 28.7599 263.42 28.9 263.28 29.08C263.14 29.26 263.07 29.45 263.07 29.6599C263.07 29.9099 263.16 30.11 263.33 30.28C263.5 30.45 263.87 30.6299 264.43 30.8199L265.63 31.2199C266.36 31.4599 266.99 31.77 267.53 32.15C268.07 32.53 268.49 32.9999 268.78 33.5699C269.08 34.1399 269.22 34.83 269.22 35.63C269.22 36.6 268.99 37.43 268.53 38.15C268.07 38.86 267.41 39.4099 266.54 39.7999C265.67 40.1899 264.62 40.38 263.39 40.38Z" fill="#3D3D3D"/>
<path d="M71.11 64.15V56.4L71.91 59.56L66.42 49.37H70.51L73.69 55.46H72.69L75.89 49.37H79.65L74.2401 59.56L75.04 56.46V64.15H71.12H71.11Z" fill="#3D3D3D"/>
<path d="M84.25 64.1499V49.6699C84.93 49.5199 85.63 49.3999 86.37 49.3099C87.1 49.2199 87.87 49.1799 88.67 49.1799C90.8 49.1799 92.4 49.6199 93.47 50.5099C94.54 51.3999 95.08 52.7999 95.08 54.7099C95.08 56.5099 94.56 57.8799 93.53 58.8199C92.49 59.7599 91.02 60.2199 89.11 60.2199C88.92 60.2199 88.76 60.2199 88.63 60.2099C88.5 60.2099 88.34 60.1999 88.17 60.1899V64.1599H84.26L84.25 64.1499ZM89.14 57.0799C89.85 57.0799 90.39 56.8999 90.74 56.5599C91.1 56.2099 91.27 55.6099 91.27 54.7499C91.27 53.8899 91.09 53.2699 90.72 52.8899C90.35 52.5099 89.79 52.3199 89.03 52.3199C88.83 52.3199 88.67 52.3199 88.54 52.3399C88.41 52.3499 88.28 52.3699 88.15 52.3999V57.0399C88.3 57.0599 88.45 57.0699 88.6 57.0799C88.75 57.0799 88.92 57.0899 89.12 57.0899L89.14 57.0799Z" fill="#3D3D3D"/>
<path d="M96.41 64.15V49.37H106.12V52.71H100.27V60.82H106.22V64.16H96.41V64.15ZM99.19 58.28V54.94H105.08V58.28H99.19Z" fill="#3D3D3D"/>
<path d="M107.68 64.15V49.37H111.57L116.62 58.66H116.04V49.37H119.7V64.15H115.8L110.75 54.86H111.33V64.15H107.67H107.68Z" fill="#3D3D3D"/>
<path d="M125.04 64.3499C124.44 64.3499 123.79 64.2999 123.1 64.1899C122.4 64.0799 121.79 63.9299 121.25 63.7299V60.4699C121.62 60.5799 122 60.6799 122.41 60.7699C122.82 60.8599 123.23 60.9299 123.66 60.9799C124.09 61.0299 124.52 61.0599 124.94 61.0599C125.67 61.0599 126.19 60.9599 126.49 60.7499C126.79 60.5399 126.94 60.2699 126.94 59.9499C126.94 59.6799 126.84 59.4499 126.63 59.2599C126.42 59.0699 125.99 58.8699 125.34 58.6499L124.14 58.2499C123.19 57.9299 122.4 57.4199 121.75 56.7199C121.1 56.0199 120.78 55.0799 120.78 53.9199C120.78 52.4499 121.28 51.2899 122.28 50.4399C123.28 49.5899 124.79 49.1699 126.81 49.1699C127.44 49.1699 128.03 49.2099 128.59 49.2799C129.14 49.3499 129.63 49.4499 130.05 49.5699V52.8199C129.65 52.6999 129.2 52.6099 128.71 52.5399C128.22 52.4699 127.72 52.4399 127.23 52.4399C126.56 52.4399 126.05 52.4999 125.69 52.5999C125.33 52.7099 125.07 52.8599 124.93 53.0399C124.79 53.2199 124.72 53.4099 124.72 53.6199C124.72 53.8699 124.81 54.0699 124.98 54.2399C125.15 54.4099 125.52 54.5899 126.08 54.7799L127.28 55.1799C128.01 55.4199 128.64 55.7299 129.18 56.1099C129.72 56.4899 130.14 56.9599 130.43 57.5299C130.73 58.0999 130.87 58.7899 130.87 59.5899C130.87 60.5599 130.64 61.3999 130.18 62.1099C129.72 62.8199 129.06 63.3699 128.19 63.7599C127.32 64.1499 126.27 64.3399 125.04 64.3399V64.3499Z" fill="#3D3D3D"/>
<path d="M131.95 64.15V49.37H135.86V64.15H131.95Z" fill="#3D3D3D"/>
<path d="M143.71 64.3499C142.45 64.3499 141.33 64.0899 140.36 63.5699C139.39 63.0499 138.64 62.2299 138.09 61.1099C137.54 59.9999 137.27 58.5499 137.27 56.7599C137.27 54.9699 137.54 53.5299 138.09 52.4099C138.64 51.2899 139.39 50.4799 140.36 49.9499C141.33 49.4299 142.44 49.1699 143.71 49.1699C144.98 49.1699 146.09 49.4299 147.06 49.9499C148.02 50.4699 148.78 51.2899 149.33 52.4099C149.88 53.5199 150.15 54.9699 150.15 56.7599C150.15 58.5499 149.88 59.9899 149.33 61.1099C148.78 62.2299 148.03 63.0399 147.06 63.5699C146.09 64.0899 144.98 64.3499 143.71 64.3499ZM143.71 61.1099C144.22 61.1099 144.66 60.9699 145.01 60.6999C145.37 60.4299 145.64 59.9799 145.82 59.3599C146.01 58.7399 146.1 57.8999 146.1 56.8399C146.1 55.7299 146.01 54.8499 145.82 54.1999C145.63 53.5499 145.36 53.0899 145.01 52.8199C144.66 52.5499 144.22 52.4099 143.71 52.4099C143.2 52.4099 142.76 52.5399 142.41 52.8099C142.05 53.0799 141.78 53.5299 141.6 54.1499C141.41 54.7799 141.32 55.6199 141.32 56.6799C141.32 57.7899 141.41 58.6699 141.6 59.3199C141.79 59.9699 142.06 60.4299 142.41 60.6999C142.77 60.9799 143.2 61.1099 143.71 61.1099Z" fill="#3D3D3D"/>
<path d="M151.56 64.15V49.37H155.45L160.5 58.66H159.92V49.37H163.58V64.15H159.68L154.63 54.86H155.21V64.15H151.55H151.56Z" fill="#3D3D3D"/>
<path d="M165.34 64.15V49.37H175.05V52.71H169.2V60.82H175.15V64.16H165.34V64.15ZM168.12 58.28V54.94H174.01V58.28H168.12Z" fill="#3D3D3D"/>
<path d="M180.18 64.3499C179.58 64.3499 178.93 64.2999 178.24 64.1899C177.54 64.0799 176.93 63.9299 176.39 63.7299V60.4699C176.76 60.5799 177.14 60.6799 177.55 60.7699C177.96 60.8599 178.37 60.9299 178.8 60.9799C179.23 61.0299 179.66 61.0599 180.08 61.0599C180.81 61.0599 181.33 60.9599 181.63 60.7499C181.93 60.5399 182.08 60.2699 182.08 59.9499C182.08 59.6799 181.98 59.4499 181.77 59.2599C181.56 59.0699 181.13 58.8699 180.48 58.6499L179.28 58.2499C178.33 57.9299 177.54 57.4199 176.89 56.7199C176.24 56.0199 175.92 55.0799 175.92 53.9199C175.92 52.4499 176.42 51.2899 177.42 50.4399C178.42 49.5899 179.93 49.1699 181.95 49.1699C182.58 49.1699 183.18 49.2099 183.73 49.2799C184.28 49.3499 184.77 49.4499 185.19 49.5699V52.8199C184.79 52.6999 184.34 52.6099 183.85 52.5399C183.36 52.4699 182.86 52.4399 182.37 52.4399C181.7 52.4399 181.19 52.4999 180.83 52.5999C180.47 52.7099 180.21 52.8599 180.07 53.0399C179.93 53.2199 179.86 53.4099 179.86 53.6199C179.86 53.8699 179.95 54.0699 180.12 54.2399C180.29 54.4099 180.66 54.5899 181.22 54.7799L182.42 55.1799C183.14 55.4199 183.78 55.7299 184.32 56.1099C184.86 56.4899 185.28 56.9599 185.57 57.5299C185.87 58.0999 186.01 58.7899 186.01 59.5899C186.01 60.5599 185.78 61.3999 185.32 62.1099C184.86 62.8199 184.2 63.3699 183.33 63.7599C182.46 64.1499 181.41 64.3399 180.18 64.3399V64.3499Z" fill="#3D3D3D"/>
<path d="M194.81 64.29C194.49 64.29 194.17 64.29 193.85 64.27C193.53 64.26 193.19 64.24 192.85 64.21C192.51 64.19 192.15 64.15 191.79 64.12V49.56C192.14 49.49 192.51 49.43 192.88 49.38C193.26 49.33 193.64 49.28 194.02 49.26C194.41 49.23 194.8 49.22 195.19 49.22C197.42 49.22 199.09 49.83 200.21 51.04C201.32 52.26 201.88 54.16 201.88 56.77C201.88 58.54 201.61 59.98 201.09 61.08C200.56 62.19 199.77 63 198.72 63.52C197.67 64.04 196.37 64.3 194.81 64.3V64.29ZM195.25 62.61C196.26 62.61 197.11 62.42 197.79 62.05C198.47 61.67 198.99 61.06 199.33 60.2C199.68 59.34 199.85 58.2 199.85 56.76C199.85 55.32 199.68 54.2 199.35 53.34C199.02 52.48 198.52 51.85 197.85 51.46C197.18 51.07 196.35 50.88 195.35 50.88C195.1 50.88 194.83 50.89 194.55 50.91C194.27 50.93 193.99 50.97 193.74 51.01V62.54C194.03 62.57 194.29 62.58 194.53 62.59C194.77 62.6 195.01 62.61 195.24 62.61H195.25Z" fill="#3D3D3D"/>
<path d="M204.02 64.15V49.37H212.31V51.09H205.95V62.44H212.41V64.16H204.02V64.15ZM205.48 57.43V55.72H211.36V57.43H205.48Z" fill="#3D3D3D"/>
<path d="M218.42 64.15V49.37H226.71V51.09H220.35V62.44H226.81V64.16H218.42V64.15ZM219.88 57.43V55.72H225.76V57.43H219.88Z" fill="#3D3D3D"/>
<path d="M228.59 64.15V49.37H230.59L237.48 61.62H237.06V49.37H238.9V64.15H236.9L230.01 51.9H230.43V64.15H228.59Z" fill="#3D3D3D"/>
<path d="M244.55 64.15V51.13H240.29V49.37H250.77V51.13H246.51V64.15H244.54H244.55Z" fill="#3D3D3D"/>
<path d="M252.17 64.15V49.56C252.53 49.49 252.9 49.43 253.28 49.38C253.66 49.33 254.06 49.28 254.47 49.26C254.88 49.23 255.32 49.22 255.78 49.22C257.62 49.22 258.99 49.59 259.89 50.34C260.79 51.09 261.24 52.21 261.24 53.71C261.24 54.7 261.02 55.53 260.57 56.21C260.12 56.88 259.48 57.39 258.64 57.73C257.8 58.07 256.78 58.24 255.58 58.24C255.26 58.24 254.99 58.24 254.76 58.22C254.53 58.22 254.31 58.2 254.09 58.19V64.16H252.16L252.17 64.15ZM255.54 56.64C256.86 56.64 257.83 56.4 258.44 55.93C259.06 55.46 259.36 54.71 259.36 53.69C259.36 53.03 259.24 52.49 259 52.06C258.76 51.63 258.39 51.32 257.89 51.11C257.39 50.9 256.74 50.8 255.95 50.8C255.58 50.8 255.26 50.81 254.97 50.83C254.68 50.85 254.39 50.89 254.1 50.93V56.57C254.29 56.58 254.46 56.59 254.61 56.6C254.76 56.61 254.91 56.62 255.06 56.62C255.21 56.62 255.37 56.62 255.54 56.62V56.64ZM260.22 64.15L255.64 57.28H257.74L262.38 64.15H260.22Z" fill="#3D3D3D"/>
<path d="M263.96 64.15V49.37H272.25V51.09H265.89V62.44H272.35V64.16H263.96V64.15ZM265.42 57.43V55.72H271.3V57.43H265.42Z" fill="#3D3D3D"/>
<path d="M278.36 64.15V49.56C278.72 49.49 279.09 49.43 279.47 49.38C279.85 49.33 280.25 49.28 280.66 49.26C281.07 49.23 281.51 49.22 281.97 49.22C283.81 49.22 285.18 49.59 286.08 50.34C286.98 51.09 287.43 52.21 287.43 53.71C287.43 54.7 287.21 55.53 286.76 56.21C286.31 56.88 285.67 57.39 284.83 57.73C283.99 58.07 282.97 58.24 281.77 58.24C281.45 58.24 281.18 58.24 280.95 58.22C280.72 58.22 280.5 58.2 280.28 58.19V64.16H278.35L278.36 64.15ZM281.74 56.64C283.06 56.64 284.03 56.4 284.64 55.93C285.26 55.46 285.56 54.71 285.56 53.69C285.56 53.03 285.44 52.49 285.2 52.06C284.96 51.63 284.59 51.32 284.09 51.11C283.59 50.9 282.94 50.8 282.15 50.8C281.78 50.8 281.46 50.81 281.17 50.83C280.88 50.85 280.59 50.89 280.3 50.93V56.57C280.49 56.58 280.66 56.59 280.81 56.6C280.96 56.61 281.11 56.62 281.26 56.62C281.41 56.62 281.57 56.62 281.74 56.62V56.64ZM286.41 64.15L281.83 57.28H283.93L288.57 64.15H286.41Z" fill="#3D3D3D"/>
<path d="M290.16 64.15V49.37H292.12V64.15H290.16ZM290.29 48.13L291.71 45.23H293.72L291.99 48.13H290.29Z" fill="#3D3D3D"/>
<path d="M299.72 64.3399C298.62 64.3399 297.66 64.0899 296.84 63.5899C296.02 63.0899 295.39 62.2799 294.93 61.1699C294.48 60.0599 294.25 58.5899 294.25 56.7599C294.25 54.9299 294.48 53.4599 294.93 52.3499C295.38 51.2399 296.02 50.4399 296.84 49.9299C297.66 49.4299 298.62 49.1799 299.72 49.1799C300.82 49.1799 301.77 49.4299 302.59 49.9299C303.41 50.4299 304.05 51.2399 304.5 52.3499C304.96 53.4599 305.18 54.9299 305.18 56.7599C305.18 58.5899 304.95 60.0599 304.5 61.1699C304.04 62.2799 303.41 63.0799 302.59 63.5899C301.77 64.0899 300.82 64.3399 299.72 64.3399ZM299.72 62.6599C300.42 62.6599 301.02 62.4799 301.54 62.1299C302.05 61.7699 302.45 61.1699 302.73 60.3199C303.01 59.4699 303.15 58.2999 303.15 56.8199C303.15 55.3399 303.01 54.0999 302.73 53.2299C302.45 52.3599 302.05 51.7499 301.54 51.3899C301.03 51.0299 300.42 50.8499 299.72 50.8499C299.02 50.8499 298.41 51.0299 297.89 51.3799C297.38 51.7299 296.98 52.3399 296.7 53.1899C296.42 54.0399 296.28 55.2099 296.28 56.6999C296.28 58.1899 296.42 59.4199 296.7 60.2899C296.98 61.1599 297.38 61.7699 297.89 62.1299C298.4 62.4899 299.01 62.6699 299.72 62.6699V62.6599Z" fill="#3D3D3D"/>
<path d="M309.94 64.3399C309.45 64.3399 308.92 64.2899 308.35 64.1999C307.78 64.1099 307.24 63.9699 306.74 63.7899V62.0899C307.09 62.2099 307.45 62.3099 307.8 62.3899C308.16 62.4699 308.51 62.5399 308.87 62.5799C309.23 62.6199 309.58 62.6399 309.93 62.6399C310.92 62.6399 311.66 62.4399 312.15 62.0299C312.64 61.6199 312.88 61.0199 312.88 60.2399C312.88 59.5699 312.7 59.0599 312.35 58.6899C311.99 58.3199 311.38 57.9799 310.5 57.6799L309.71 57.4099C308.72 57.0699 307.93 56.5699 307.35 55.9199C306.77 55.2699 306.48 54.4099 306.48 53.3399C306.48 52.0399 306.9 51.0199 307.74 50.2799C308.58 49.5399 309.82 49.1699 311.47 49.1699C311.96 49.1699 312.44 49.1999 312.94 49.2699C313.43 49.3399 313.86 49.4299 314.23 49.5499V51.2399C313.82 51.1099 313.39 51.0199 312.95 50.9599C312.51 50.8999 312.06 50.8699 311.62 50.8699C310.87 50.8699 310.27 50.9599 309.81 51.1499C309.35 51.3399 309.01 51.5999 308.8 51.9499C308.59 52.2999 308.48 52.7199 308.48 53.1999C308.48 53.8299 308.64 54.3199 308.97 54.6799C309.3 55.0399 309.88 55.3599 310.7 55.6499L311.49 55.9199C312.21 56.1699 312.82 56.4699 313.32 56.8399C313.82 57.2099 314.21 57.6499 314.47 58.1799C314.74 58.7099 314.87 59.3399 314.87 60.0699C314.87 60.9699 314.68 61.7399 314.3 62.3699C313.92 63.0099 313.36 63.4899 312.62 63.8299C311.88 64.1699 310.99 64.3299 309.95 64.3299L309.94 64.3399Z" fill="#3D3D3D"/>
</g>
<defs>
<clipPath id="clip0_143_5">
<rect width="316" height="80" fill="white"/>
</clipPath>
</defs>
</svg>
