<svg xmlns="http://www.w3.org/2000/svg" viewBox="0 0 48 48" width="48" height="48">
	<g>
		<circle fill="#2563eb" cx="24" cy="24" r="24"/>
		<path fill="#fff" d="M34.5 13.5A13.1 13.1 0 0 0 24 9.5c-7.1 0-12.9 5.8-12.9 12.9 0 2.3.6 4.6 1.7 6.6L9.5 38.5l9.7-2.5c2 1.1 4.2 1.7 6.5 1.7h.1c7.1 0 12.9-5.8 12.9-12.9 0-3.4-1.3-6.6-3.7-9zm-10.5 22c-2.1 0-4.1-.6-5.9-1.6l-.4-.2-5.8 1.5 1.5-5.6-.2-.4c-1-1.7-1.6-3.7-1.6-5.7 0-6.1 5-11.1 11.1-11.1 3 0 5.8 1.2 7.9 3.3s3.3 4.9 3.3 7.9c0 6.1-5 11.1-11.1 11.1zm6.1-8.3c-.3-.2-1.7-.8-2-1-.3-.1-.5-.2-.7.2-.2.3-.7 1-1 1.2-.2.2-.4.2-.7.1-.3-.1-1.3-.5-2.5-1.6-.9-.8-1.5-1.7-1.7-2-.2-.3 0-.5.1-.7.1-.1.3-.4.5-.6.2-.2.2-.3.3-.5.1-.2.1-.4 0-.6-.1-.2-.7-1.7-1-2.3-.3-.6-.6-.5-.8-.5h-.6c-.2 0-.5.1-.8.4-.3.3-1 1-1 2.4 0 1.4 1 2.7 1.2 2.9.2.3 2.1 3.3 5.1 4.5.7.3 1.2.5 1.6.6.7.2 1.3.2 1.7.1.5-.1 1.5-.7 1.7-1.3.2-.6.2-1.1.2-1.3-.1-.2-.2-.2-.5-.4z"/>
	</g>
</svg>