<svg width="63" height="63" viewBox="0 0 63 63" fill="none" xmlns="http://www.w3.org/2000/svg">
<g filter="url(#filter0_d_74_29)">
<path d="M45.25 0H17.75C10.1561 0 4 6.15608 4 13.75V41.25C4 48.8439 10.1561 55 17.75 55H45.25C52.8439 55 59 48.8439 59 41.25V13.75C59 6.15608 52.8439 0 45.25 0Z" fill="#2A4364"/>
<path d="M42.7102 25.1491C43.0346 27.3368 42.661 29.5711 41.6423 31.5342C40.6237 33.4973 39.0121 35.0892 37.0366 36.0836C35.0611 37.0779 32.8223 37.424 30.6388 37.0726C28.4553 36.7213 26.4381 35.6903 24.8742 34.1265C23.3104 32.5626 22.2795 30.5455 21.9281 28.3619C21.5767 26.1784 21.9228 23.9397 22.9172 21.9642C23.9115 19.9887 25.5034 18.377 27.4665 17.3584C29.4296 16.3398 31.6639 15.9661 33.8516 16.2905C36.0831 16.6214 38.1491 17.6613 39.7443 19.2565C41.3395 20.8516 42.3793 22.9176 42.7102 25.1491Z" fill="#8BB5C0"/>
<path d="M50.9567 9.41327C51.0801 10.2455 50.938 11.0955 50.5505 11.8423C50.163 12.5891 49.5499 13.1947 48.7984 13.5729C48.0468 13.9512 47.1952 14.0829 46.3645 13.9492C45.5339 13.8155 44.7665 13.4233 44.1716 12.8284C43.5767 12.2335 43.1845 11.4661 43.0508 10.6355C42.9171 9.80482 43.0488 8.95316 43.4271 8.20164C43.8053 7.45012 44.4109 6.83701 45.1577 6.44951C45.9045 6.06201 46.7545 5.91986 47.5867 6.04327C48.4357 6.16915 49.2216 6.56473 49.8284 7.17158C50.4353 7.77842 50.8308 8.56434 50.9567 9.41327Z" fill="#8BB5C0"/>
</g>
<defs>
<filter id="filter0_d_74_29" x="0" y="0" width="63" height="63" filterUnits="userSpaceOnUse" color-interpolation-filters="sRGB">
<feFlood flood-opacity="0" result="BackgroundImageFix"/>
<feColorMatrix in="SourceAlpha" type="matrix" values="0 0 0 0 0 0 0 0 0 0 0 0 0 0 0 0 0 0 127 0" result="hardAlpha"/>
<feOffset dy="4"/>
<feGaussianBlur stdDeviation="2"/>
<feComposite in2="hardAlpha" operator="out"/>
<feColorMatrix type="matrix" values="0 0 0 0 0.815686 0 0 0 0 0.682353 0 0 0 0 0.45098 0 0 0 0.5 0"/>
<feBlend mode="normal" in2="BackgroundImageFix" result="effect1_dropShadow_74_29"/>
<feBlend mode="normal" in="SourceGraphic" in2="effect1_dropShadow_74_29" result="shape"/>
</filter>
</defs>
</svg>
